<?xml version="1.0" encoding="utf-8"?>
<!-- Generator: Adobe Illustrator 21.0.0, SVG Export Plug-In . SVG Version: 6.00 Build 0)  -->
<svg version="1.1" id="Layer_1" xmlns="http://www.w3.org/2000/svg" xmlns:xlink="http://www.w3.org/1999/xlink" x="0px" y="0px"
	 viewBox="0 0 128.8 22.4" style="enable-background:new 0 0 128.8 22.4;" xml:space="preserve">
<style type="text/css">
	.st0{fill:#0C1219;}
</style>
<title>Asset 1</title>
<g id="Layer_2">
	<g id="圖層_1">
		<path class="st0" d="M51.3,27.4l-0.5,0.4c-0.3-0.3-0.8-0.5-1.3-0.5c-0.4,0-0.7,0.1-1,0.3c-0.3,0.2-0.4,0.5-0.4,0.8
			c0,0.2,0.1,0.4,0.2,0.6c0.1,0.2,0.3,0.3,0.5,0.4c0.2,0.1,0.5,0.2,0.7,0.1c0.2,0,0.4,0,0.6-0.1c0.2-0.1,0.4-0.2,0.6-0.4l0.5,0.5
			c-0.3,0.2-0.6,0.4-0.9,0.5c-0.3,0.1-0.6,0.1-0.9,0.1c-0.6,0-1.1-0.2-1.6-0.5c-0.4-0.3-0.6-0.8-0.6-1.3c0-0.3,0.1-0.7,0.3-0.9
			c0.2-0.3,0.5-0.5,0.8-0.6c0.4-0.2,0.7-0.2,1.1-0.2c0.3,0,0.7,0.1,1,0.2C50.8,27,51.1,27.2,51.3,27.4z"/>
		<path class="st0" d="M53.9,26.7c0.6,0,1.1,0.2,1.5,0.5c0.4,0.3,0.6,0.8,0.6,1.3c0,0.5-0.2,1-0.6,1.3c-0.9,0.7-2.2,0.7-3.1,0
			c-0.4-0.3-0.6-0.8-0.6-1.3c0-0.3,0.1-0.6,0.3-0.9c0.2-0.3,0.5-0.5,0.8-0.7C53.2,26.8,53.6,26.7,53.9,26.7z M53.9,27.4
			c-0.4,0-0.7,0.1-1,0.3c-0.3,0.2-0.4,0.5-0.4,0.9c0,0.4,0.2,0.7,0.5,0.9c0.3,0.2,0.6,0.3,0.9,0.3c0.4,0,0.7-0.1,1-0.3
			c0.5-0.4,0.5-1.1,0.2-1.5c0-0.1-0.1-0.1-0.2-0.2C54.7,27.5,54.3,27.4,53.9,27.4L53.9,27.4z"/>
		<path class="st0" d="M56.8,26.8h0.9c0.5,0,0.9,0,1.3,0.2c0.3,0.1,0.5,0.3,0.7,0.6c0.3,0.5,0.4,1.1,0.2,1.7
			c-0.1,0.2-0.3,0.4-0.4,0.6c-0.2,0.1-0.4,0.3-0.6,0.3c-0.4,0.1-0.8,0.1-1.1,0.1h-1L56.8,26.8z M57.6,27.5v2.2H58
			c0.3,0,0.5,0,0.8-0.1c0.2-0.1,0.3-0.2,0.4-0.4c0.1-0.2,0.2-0.4,0.2-0.6c0-0.3-0.1-0.6-0.4-0.9c-0.3-0.2-0.7-0.3-1.1-0.3L57.6,27.5
			z"/>
		<path class="st0" d="M60.9,26.8h2.3v0.6h-1.5v0.6h1.5v0.6h-1.5v0.9h1.5v0.6h-2.3V26.8z"/>
		<path class="st0" d="M63.9,26.8h0.9c0.5,0,0.9,0,1.3,0.2c0.3,0.1,0.5,0.3,0.7,0.6c0.3,0.5,0.4,1.2,0.2,1.7
			c-0.1,0.2-0.3,0.4-0.4,0.6c-0.2,0.1-0.4,0.3-0.6,0.3c-0.4,0.1-0.8,0.1-1.1,0.1h-1L63.9,26.8z M64.6,27.5v2.2H65
			c0.3,0,0.5,0,0.8-0.1c0.2-0.1,0.3-0.2,0.4-0.4c0.1-0.2,0.2-0.4,0.2-0.6c0-0.3-0.1-0.6-0.3-0.8c-0.3-0.2-0.7-0.3-1.1-0.3L64.6,27.5
			z"/>
		<path class="st0" d="M70.8,26.8h0.8l1.6,3.5h-0.8L72,29.6h-1.7L70,30.3h-0.8L70.8,26.8z M71.2,27.7l-0.6,1.2h1.1L71.2,27.7z"/>
		<path class="st0" d="M73.8,26.8h0.8v2.8h1.2v0.6h-1.9V26.8z"/>
		<path class="st0" d="M76.3,26.8h0.8v2.8h1.2v0.6h-1.9V26.8z"/>
		<path class="st0" d="M78.8,26.8h0.8v3.5h-0.8V26.8z"/>
		<path class="st0" d="M81.7,26.8h0.8l1.6,3.5h-0.8l-0.3-0.7h-1.7l-0.3,0.7h-0.8L81.7,26.8z M82.1,27.7l-0.6,1.2h1.1L82.1,27.7z"/>
		<path class="st0" d="M84.7,26.8h0.8l1.8,2.3v-2.3H88v3.5h-0.8L85.5,28v2.3h-0.8V26.8z"/>
		<path class="st0" d="M92.8,27.4l-0.6,0.4c-0.3-0.3-0.8-0.5-1.3-0.5c-0.4,0-0.7,0.1-1,0.3c-0.3,0.2-0.4,0.5-0.4,0.8
			c0,0.2,0.1,0.4,0.2,0.6c0.1,0.2,0.3,0.3,0.5,0.4c0.2,0.1,0.5,0.2,0.7,0.1c0.2,0,0.4,0,0.6-0.1c0.2-0.1,0.4-0.2,0.6-0.4l0.5,0.5
			c-0.3,0.2-0.6,0.4-0.9,0.5c-0.3,0.1-0.6,0.1-0.9,0.1c-0.6,0-1.1-0.2-1.6-0.5c-0.4-0.3-0.6-0.8-0.6-1.3c0-0.3,0.1-0.7,0.3-0.9
			c0.2-0.3,0.5-0.5,0.8-0.6c0.4-0.2,0.8-0.3,1.2-0.2c0.3,0,0.7,0.1,1,0.2C92.3,27,92.5,27.2,92.8,27.4z"/>
		<path class="st0" d="M93.4,26.8h2.3v0.6h-1.5v0.6h1.5v0.6h-1.5v0.9h1.5v0.6h-2.3V26.8z"/>
		<path class="st0" d="M100,26.7c0.6,0,1.1,0.2,1.5,0.5c0.4,0.3,0.6,0.8,0.6,1.3c0,0.5-0.2,1-0.6,1.3c-0.9,0.7-2.2,0.7-3.1,0
			c-0.4-0.3-0.6-0.8-0.6-1.3c0-0.3,0.1-0.6,0.3-0.9c0.2-0.3,0.5-0.5,0.8-0.7C99.3,26.8,99.6,26.7,100,26.7z M100,27.4
			c-0.4,0-0.7,0.1-1,0.3c-0.3,0.2-0.4,0.5-0.4,0.9c0,0.4,0.2,0.7,0.5,0.9c0.3,0.2,0.6,0.3,0.9,0.3c0.4,0,0.7-0.1,1-0.3
			c0.5-0.4,0.5-1.1,0.2-1.5c0-0.1-0.1-0.1-0.2-0.2C100.7,27.5,100.4,27.4,100,27.4L100,27.4z"/>
		<path class="st0" d="M102.9,26.8h2.1v0.6h-1.3v0.6h1.3v0.6h-1.3v1.6h-0.8L102.9,26.8z"/>
		<path class="st0" d="M106.8,26.8h2.3v0.6h-0.8v2.8h-0.8v-2.8h-0.7L106.8,26.8z"/>
		<path class="st0" d="M110.9,26.8h0.8l1.6,3.5h-0.8l-0.3-0.7h-1.7l-0.3,0.7h-0.8L110.9,26.8z M111.3,27.7l-0.6,1.2h1.1L111.3,27.7z
			"/>
		<path class="st0" d="M113.9,26.8h0.8v3.5h-0.8V26.8z"/>
		<path class="st0" d="M115.2,26.8h0.8l0.6,2.2l0.7-2.2h0.7l0.8,2.2l0.6-2.2h0.8l-0.9,3.5h-0.8l-0.8-2.3l-0.8,2.2h-0.8L115.2,26.8z"
			/>
		<path class="st0" d="M122,26.8h0.8l1.6,3.5h-0.8l-0.3-0.7h-1.7l-0.3,0.7h-0.8L122,26.8z M122.4,27.7l-0.6,1.2h1.1L122.4,27.7z"/>
		<path class="st0" d="M125,26.8h0.8l1.8,2.3v-2.3h0.8v3.5h-0.8l-1.8-2.3v2.3H125V26.8z"/>
		<path class="st0" d="M128.7,16.2c0,1.9,0,3.8,0,5.6c0,0.4-0.2,0.6-0.6,0.6c-1.8,0-4.3,0-6,0c-0.5,0-0.7-0.1-0.7-0.6
			c0-3.3,0-6.5,0-9.7c0-1.5-0.6-3-1.6-4.1c-1.6-1.5-4-1.7-5.8-0.5c-1.3,0.9-2.1,2.5-2.1,4.1c0,3.4,0,6.7,0,10.1c0,0.6,0,0.7-0.7,0.7
			h-5.8c-0.7,0-0.7,0-0.7-0.6c0-3.7-0.1-7.3,0-11c0.1-2,0.8-3.9,2-5.5c2-3.1,5.3-5,9-5.2c3.7-0.4,7.3,1,9.8,3.7
			c1.6,1.6,2.7,3.7,3.1,6c0.2,1.8,0.2,3.7,0.2,5.5C128.7,15.6,128.7,15.9,128.7,16.2z"/>
		<path class="st0" d="M54,11.2V0.6C54,0.1,54,0,54.6,0c4.1,0,8.2,0,12.3,0c2-0.1,4.1,0.3,6,1c3.1,1.3,5.2,4.1,5.6,7.4
			c0.4,2.6,0.2,5.3-0.7,7.8c-0.9,2.6-2.9,4.6-5.6,5.5c-1.4,0.5-2.8,0.7-4.2,0.7c-4.5,0-8.9,0-13.4,0c-0.5,0-0.5,0-0.5-0.5L54,11.2z
			 M64,5.3L64,5.3h-1.9c-0.7,0-0.9,0.2-0.9,0.9v10c0,0.1,0,0.2,0,0.3c0,0.3,0.2,0.6,0.6,0.6c0,0,0,0,0,0c1.5,0,3.1,0,4.6-0.1
			c1.7-0.1,3.2-1.4,3.5-3.1c0.5-1.6,0.5-3.2,0.2-4.8c-0.3-1.8-1.7-3.2-3.4-3.6C65.9,5.4,64.9,5.3,64,5.3z"/>
		<path class="st0" d="M13.9,0c1.8,0,3.6,0,5.4,0c0.4,0,0.7,0.2,0.8,0.6l7.7,21.3c0.2,0.4,0.1,0.4-0.3,0.4h-6.9
			c-0.3,0-0.6-0.2-0.7-0.5c-1.9-5.3-3.7-10.7-5.6-16c0-0.1,0-0.1-0.1-0.2c-0.1-0.1-0.2-0.3-0.3-0.3c-0.1,0-0.3,0.1-0.3,0.3
			c-0.3,0.9-0.6,1.8-1,2.7L8,21.7c-0.2,0.5-0.3,0.6-0.8,0.6H0.4c-0.4,0-0.5,0-0.3-0.4L7.7,0.6C7.9,0.1,8,0,8.5,0H13.9z"/>
		<path class="st0" d="M24.9,0h0.5c2.5,0,4.9,0,7.4,0c0.4,0,0.8,0.2,1,0.6c1.3,2,2.6,3.9,3.8,5.8c0.3,0.5,0.6,0.5,1,0
			c1.3-2,2.7-4,4-6C42.7,0.2,43,0,43.4,0h7.7h0.3c-0.1,0.1-0.2,0.3-0.2,0.4l-9,13.1c-0.3,0.4-0.4,0.9-0.4,1.4c0,2.3,0,4.6,0,6.8
			c0,0.5,0,0.5-0.5,0.5h-6c-0.5,0-0.6,0-0.6-0.5c0-2.3,0-4.6,0-6.9c0-0.5-0.1-1-0.4-1.4L25.2,0.6L24.9,0z"/>
		<path class="st0" d="M78.7,0h0.4c2.5,0,4.9,0,7.4,0c0.4,0,0.8,0.2,1,0.6c1.3,1.9,2.6,3.9,3.8,5.8c0.3,0.5,0.7,0.5,1,0
			c1.3-2,2.6-3.9,4-5.9C96.6,0.2,96.9,0,97.2,0h7.7h0.3l-0.3,0.4c-3,4.3-5.9,8.6-8.9,12.9c-0.3,0.5-0.5,1-0.5,1.6c0,2.2,0,4.5,0,6.7
			c0,0.5,0,0.5-0.5,0.5H89c-0.5,0-0.6,0-0.6-0.5c0-2.3,0-4.6,0-6.8c0-0.5-0.2-1-0.4-1.4L79.1,0.6L78.7,0z"/>
	</g>
</g>
</svg>
