<?xml version="1.0" encoding="utf-8"?>
<!-- Generator: Adobe Illustrator 20.1.0, SVG Export Plug-In . SVG Version: 6.00 Build 0)  -->
<svg version="1.1" id="圖層_1" xmlns="http://www.w3.org/2000/svg" xmlns:xlink="http://www.w3.org/1999/xlink" x="0px" y="0px"
	 viewBox="0 0 150 26" style="enable-background:new 0 0 150 26;" xml:space="preserve">
<style type="text/css">
	.st0{fill-rule:evenodd;clip-rule:evenodd;fill:#FFFFFF;}
</style>
<g>
	<g>
		<g>
			<path class="st0" d="M150,18.8c0,2.2,0,4.4,0,6.6c0,0.5-0.2,0.7-0.7,0.7c-2.1,0-5,0-7,0c-0.6,0-0.8-0.2-0.8-0.7
				c0-3.8,0-7.6,0-11.4c0-1.7-0.7-3.5-1.9-4.7c-1.6-1.7-4.9-2-6.8-0.6c-1.6,1.1-2.5,2.9-2.5,4.8c0,3.9,0,7.9,0,11.8
				c0,0.7,0,0.8-0.8,0.8c-2,0-4.7,0-6.7,0c-0.8,0-0.8-0.1-0.8-0.8c0-4.3-0.1-8.5,0-12.8c0-2.3,0.9-4.5,2.3-6.4
				c2.6-3.6,5.8-5.7,10.5-6c4.7-0.4,8.3,1.1,11.5,4.3c2,2,3.1,4.3,3.6,7c0.4,2.1,0.1,4.3,0.2,6.4C150,18.1,150,18.5,150,18.8z"/>
		</g>
		<path class="st0" d="M62.9,13c0-4.1,0-8.2,0-12.3C62.9,0.1,63,0,63.6,0c4.8,0,9.5,0,14.3,0c2.4,0,4.7,0.2,7,1.2
			c3.8,1.6,5.9,4.6,6.6,8.6c0.5,3.1,0.2,6.1-0.8,9c-1.1,3.2-3.3,5.3-6.5,6.4c-1.6,0.5-3.2,0.8-4.9,0.8c-5.2,0-10.4,0-15.6,0
			c-0.6,0-0.6-0.1-0.6-0.6C62.9,21.2,62.9,17.1,62.9,13z M74.6,6.1C74.6,6.1,74.6,6.1,74.6,6.1c-0.7,0-1.5,0-2.2,0c-0.8,0-1,0.2-1,1
			c0,3.9,0,7.7,0,11.6c0,0.1,0,0.2,0,0.3c0,0.4,0.3,0.7,0.7,0.7c1.8,0,3.6,0,5.4-0.1c2.2-0.2,3.5-1.5,4.2-3.6
			c0.5-1.9,0.6-3.8,0.2-5.7c-0.5-2.2-2-3.8-4-4.1C76.8,6.1,75.7,6.2,74.6,6.1z"/>
		<path class="st0" d="M16.2,0c2.1,0,4.2,0,6.3,0c0.5,0,0.8,0.2,0.9,0.7c3,8.3,6,16.6,9,24.8c0.2,0.5,0.2,0.5-0.3,0.5
			c-2.7,0-5.3,0-8,0c-0.5,0-0.7-0.2-0.9-0.6c-2.2-6.2-4.4-12.4-6.5-18.6c0-0.1,0-0.2-0.1-0.2c-0.1-0.1-0.2-0.3-0.3-0.3
			c-0.1,0-0.3,0.2-0.4,0.3c-0.4,1-0.8,2.1-1.1,3.2c-1.8,5.2-3.6,10.4-5.4,15.6C9.1,25.9,9,26,8.4,26c-2.6,0-5.3,0-7.9,0
			c-0.5,0-0.5,0-0.4-0.5C3.1,17.2,6,9,9,0.7C9.2,0.1,9.3,0,9.9,0C12,0,14.1,0,16.2,0z"/>
		<path class="st0" d="M29,0c0.2,0,0.4,0,0.5,0c2.9,0,5.8,0,8.6,0c0.6,0,0.9,0.2,1.2,0.7c1.5,2.3,3,4.5,4.5,6.8
			C44.2,8,44.6,8,45,7.5c1.6-2.3,3.1-4.6,4.6-7C49.8,0.2,50.1,0,50.5,0c3,0,6,0,9,0c0.1,0,0.2,0,0.3,0c-0.1,0.2-0.2,0.3-0.3,0.4
			c-3.5,5.1-7,10.2-10.5,15.3c-0.3,0.5-0.5,1-0.5,1.7c0,2.7,0,5.3,0,8c0,0.6,0,0.6-0.6,0.6c-2.3,0-4.6,0-6.9,0
			c-0.6,0-0.6-0.1-0.6-0.6c0-2.7,0-5.3,0-8c0-0.6-0.2-1.1-0.5-1.6c-3.5-5-6.9-10.1-10.4-15.1C29.3,0.5,29.2,0.3,29,0z"/>
		<path class="st0" d="M91.7,0c0.2,0,0.4,0,0.5,0c2.9,0,5.8,0,8.6,0c0.5,0,0.9,0.2,1.2,0.7c1.5,2.3,3,4.5,4.5,6.8
			c0.4,0.6,0.8,0.6,1.2,0c1.5-2.3,3.1-4.6,4.6-6.9c0.2-0.4,0.5-0.6,0.9-0.6c3,0,6,0,9,0c0.1,0,0.1,0,0.3,0c-0.1,0.2-0.2,0.4-0.3,0.5
			c-3.5,5-6.9,10-10.4,15c-0.4,0.6-0.6,1.2-0.6,1.9c0,2.6,0,5.2,0,7.8c0,0.6,0,0.6-0.6,0.6c-2.3,0-4.6,0-6.9,0
			c-0.6,0-0.6-0.1-0.6-0.6c0-2.7,0-5.3,0-8c0-0.6-0.2-1.2-0.5-1.7c-3.5-5-6.9-10.1-10.4-15.1C92,0.4,91.9,0.3,91.7,0z"/>
	</g>
</g>
</svg>
